<?xml version="1.0" encoding="UTF-8"?><svg id="Layer_1" xmlns="http://www.w3.org/2000/svg" viewBox="0 0 1600 87"><defs><style>.cls-1{fill:#3e84e2;}.cls-2{fill:#fff;}.cls-3{fill:#5ed469;}.cls-4{fill:#5895e6;}.cls-5{fill:#e64d6b;}.cls-6{fill:#78dc82;}.cls-7{fill:#64d66f;}.cls-8{fill:#4a8be4;}.cls-9{fill:#3a8de5;}.cls-10{fill:#e4385a;}.cls-11{fill:#4395e7;}.cls-12{fill:#347ee0;}.cls-13{fill:#61d16a;}.cls-14{fill:#ffe335;}.cls-15{fill:#56d162;}.cls-16{fill:#e53d5f;}</style></defs><path class="cls-15" d="m159.16,36.52c-.33,3.29-.44,6.33-1.04,9.27-.21,1.04.35,3.04-2.02,3.14-1.58.07-3.5,1.18-4.56-.28-.91-1.24.31-2.89.95-4.25,1.25-2.62,1.15-5.53,1.78-8.28.15-.63.1-1.4.99-1.48,1.3-.11,2.65-.34,3.87.16.24.1.04,1.31.04,1.72Z"/><path class="cls-15" d="m564.74,63.73c1.87.87.48,2.44.39,3.39-.3,3.21-.76,6.41-.9,9.64-.07,1.61-.71,2.16-2.24,2.11-5.5-.2-5.48.88-3.55-4.52,1.13-3.16,1.48-6.41,2.06-9.65,1.38-.48,3.18.89,4.24-.97Z"/><path class="cls-3" d="m307.57,86.08c-.18-2.9-1.4-5.81,1.03-8.45,1.86-2.02,3.36-4.37,5.01-6.57.64-.85,1.18-1.04,2.39-.62,3.14,1.08,3.34,1.04,1.22,3.59-3.26,3.93-5.71,8.5-9.65,12.06Z"/><path class="cls-10" d="m449.37,12.85c1.96.06,2.87,1.48,2.02,3.07-1.63,3.04-3.36,6.03-5.08,9.02-.22.38-.53.93-1.15.68-.46-.19-.33-.69-.35-1.08-.05-1.05-.09-2.06-.4-3.12-1.04-3.55.58-6.73,3.99-8.25.36-.16.77-.24.97-.31Z"/><path class="cls-3" d="m42.43,71.52c.02-1.64,4.19-5.58,5.55-5.52,1.64.07,2.63,1.86,1.75,3.51-1.55,2.91-3.27,5.72-4.93,8.57-.19.32-.38.92-.85.63-.36-.22-.66-.75-.73-1.19-.32-2.09-.56-4.19-.79-6Z"/><path class="cls-3" d="m449.57,92.1c-2.51.62-4.72-.22-6.97-.35-.34-.02-.66-.1-.77-.46-.67-2.25-1.38-4.49-1.95-6.76-.29-1.16.87-1.46,1.56-1.91.85-.56,1.6-.09,2.09.64,1.98,2.91,4.48,5.46,6.03,8.85Z"/><path class="cls-14" d="m77.24,67.51c-.97,0-1.7,0-2.44,0-.77-.01-.99-.37-.74-1.1.74-2.21,1.46-4.42,2.15-6.64.26-.82.94-.62,1.41-.52,1.31.27,2.9.36,3.41,1.86.68,2.01.03,4.1-.65,5.93-.43,1.16-2.23.24-3.15.48Z"/><path class="cls-14" d="m462.99,68.61c.98-2.54,1.45-5.17,3.01-7.3.5-.68.82-.9-.17-1.32-.96-.41-.81-1.32-.65-2.14.13-.62.65-.62,1.16-.63.98-.03,1.43.8,1.41,1.42-.1,2.26,2.07,3.48,2.32,5.6.2,1.66.06,2.56-1.85,2.9-1.72.3-3.55.45-5.23,1.46Z"/><path class="cls-3" d="m194.26,71.81c2.79-1.41,4.73-3.94,7.42-5.48.48-.28.98-.92,1.51-.55.62.44.31,1.16.06,1.77-.69,1.7.28,3.6-.65,5.3-.25.47-.1,1.29-.92,1.14-2.48-.46-4.95-1-7.43-1.51,0-.22,0-.45,0-.67Z"/><path class="cls-10" d="m392.43,44.3c-.05-.06-.1-.17-.16-.18-2.92-.54-2.97-.62-1.62-3.45.38-.81.84-1.58,1.28-2.36.47-.82.35-2.34,1.98-1.85,1.45.43,2.84.86,2.67,2.95-.15,1.92.01,3.8-2.74,3.84-.54,0-1.35.18-1.47,1.04,0,0,.05,0,.05,0Z"/><path class="cls-3" d="m59.9,25.64c-1.77.29-2.35-.52-2.54-2.3-.18-1.61-.42-3.2-.43-4.83,0-1.19.56-1.6,1.47-.98,1.54,1.04,3.14,2.11,4.34,3.5,1,1.15-.29,2.58-.47,3.88-.15,1.03-1.44.78-2.36.74Z"/><path class="cls-10" d="m468.59,92.67c.16-2.6,2.24-4.17,2.47-6.5.08-.75.98-1.15,1.51-.81.89.57,2.53-.18,2.75,1.39.19,1.37.12,2.77.15,4.16.01.5-.34.69-.78.77-1.99.37-3.88,1.32-6.1,1Z"/><path class="cls-13" d="m93.45,69.82c-.03,1.15.5,2.5-.98,3.18-1.71.79-3.55,1.12-5.4,1.38-.31.04-.52-.32-.35-.71.99-2.27,1.8-4.64,3.06-6.75.48-.8,1.99-.14,3.01.1.86.2.79.9.73,1.57-.04.41-.04.81-.07,1.22Z"/><path class="cls-10" d="m47.16,50.8c-.24,1.62-.52,3.19-.68,4.77-.18,1.78-1.82.93-2.67,1.54-.68.49-1.38-.11-1.71-.87-.57-1.34-1.4-3.32-.59-4.06,1.46-1.33,3.14-2.93,5.25-3.15.93-.1.02,1.2.39,1.76Z"/><path class="cls-3" d="m139.99,89.64c.9-2.43,1.63-4.5,2.45-6.53.35-.87,1.06-1.66,2.07-1.05.86.52,2.85,0,2.26,2.1-.35,1.25.83,2.81-.04,3.63-.84.79-2.42.79-3.68,1.12-.87.23-1.74.42-3.07.73Z"/><path class="cls-3" d="m14.92,48.39c1.06-2.44,1.93-4.54,2.87-6.61.69-1.53,2.12-.81,3.21-.83,1.16-.01.94,1.1.97,1.88.04.81-.15,1.69.11,2.42.35.99-.02,1.35-.83,1.61-1.92.63-3.85,1.24-6.34,1.53Z"/><path class="cls-10" d="m254.5,70.61c.15-2.62,1.56-4.57,2.25-6.76.3-.96,1.21-.93,1.5-.62.72.75,2.35-.3,2.49,1.34,0,.08.02.17,0,.24-.36,1.44,1.54,3.11.27,4.1-1.77,1.38-4.17,1.54-6.51,1.7Z"/><path class="cls-10" d="m6.47,78c.57-2.23,1.29-4.02,2.11-5.77.47-1,1.23-.72,1.31-.04.24,2,1.73,3.39,2.35,5.24.59,1.76-.51,2.09-1.2,2.91-.84,1-1.67.4-2.34-.17-.83-.71-2.51-.77-2.23-2.16Z"/><path class="cls-3" d="m391.19,16.76c.08.57-.17.91-.72,1.1-1.58.54-3.14,1.12-4.72,1.67-1.31.46-2,.13-1.42-1.34.68-1.73,1.47-3.41,2.24-5.11.55-1.2,1.72-.76,2.61-.8.95-.04,1.3.7,1.39,1.65.09.95.4,1.88.61,2.82Z"/><path class="cls-9" d="m558.09,22.22c2.88.1,5.22,3.58,4.09,5.97-.79,1.68-2.78.92-4.16,1.47-.95.38-.54-1.2-.76-1.89-.34-1.08-.3-2.23-.73-3.33-.62-1.57-.15-2.57,1.57-2.21Z"/><path class="cls-14" d="m248.38,46.74c.87-2.43,1.52-4.34,2.24-6.23.68-1.78,2.21-1.65,3.69-1.49,1.84.19.84,1.57,1.02,2.47.43,2.21-.07,3.51-2.71,3.61-1.27.05-2.5.94-4.24,1.64Z"/><path class="cls-10" d="m22.94,14.97c-.18,1.47-.39,2.92-.53,4.36-.06.59-.31.8-.89.93-2.76.62-4.53-1.05-3.97-3.79.56-2.76,1.8-3.78,4.5-3.58,1.55.12.51,1.41.89,2.07Z"/><path class="cls-9" d="m125.49,27.94c.34-4.58,3.39-6.45,6.61-4.4.9.57,1,.96.28,1.61-1.46,1.29-2.93,2.55-4.19,4.06-.36.43-.91,1.21-1.6.76-.73-.49-1.32-1.25-1.09-2.02Z"/><path class="cls-16" d="m381.12,80.7c-.69.47-1.35.73-1.73,1.21-1.1,1.39-2.34,1.26-3.65.48-1.42-.85-.78-2-.42-3.15,1-3.15.96-3.15,3.37-.76.74.74,1.54,1.42,2.42,2.23Z"/><path class="cls-7" d="m345.53,65.16c-1.95-.14-2.61-.77-1.99-2.82,1.23-4.05,1.12-4.12,3.89-1.36.68.68,2.26,1.17,1.71,2.3-.65,1.31-2.24,1.69-3.61,1.88Z"/><path class="cls-16" d="m519.45,28.23c.22-.67-.35-2.43,1.47-3,.8-.25,4.57,3.4,4.21,4.05-.62,1.11-1.86,1.7-3.1,1.43-1.05-.23-3.19.76-2.58-2.48Z"/><path class="cls-9" d="m454.67,47.88c1.74-.26,2.06-2.19,3.64-3.04.45,1.1.99,2.14,1.28,3.23.24.89,1.22,2.06-.28,2.72-1.33.59-2.85,1.21-3.99-.23-.48-.6-2.02-.84-1.11-2.19h-.02c.37.03.57-.13.52-.52l-.03.02Z"/><path class="cls-14" d="m121.88,41.45c-2.36.25-2.33-1.07-1.73-2.59.45-1.12.02-2.94,1.16-3.3,1.3-.4,1.78,1.35,2.52,2.25.63.76,2.33,1.33,1.7,2.28-.68,1.04-2.26,1.52-3.66,1.35Z"/><path class="cls-9" d="m201.88,91.99c-.98-.18-2.05-.37-2.59-1.42-.68-1.32.82-1.52,1.27-2.26.08-.13.22-.27.36-.33.99-.42,1.39-2.43,2.36-1.83,1.47.92,1.56,3.02,1.51,4.6-.03,1.13-1.75,1.04-2.9,1.24Z"/><path class="cls-3" d="m112.39,68.68c1.12.99,2.25,1.92,3.3,2.93,1.55,1.5,1.39,2.2-.58,2.86-.3.1-.62.17-.91.29-1.06.44-2.1.38-3-.3-1.07-.81-.11-1.73-.03-2.62.11-1.19.71-2.12,1.22-3.16Z"/><path class="cls-9" d="m537.62,64.71c.08.15.09.29.01.44-1.25-1.12-2.4-2.44-4.36-2.02-.73-1.5-1.37-3.02-.95-4.89,2.07.61,3.67,1.77,5.24,2.99.97.75.99,1.52.31,2.43-.35.28-.35.65-.25,1.04Z"/><path class="cls-9" d="m57.67,40.13c-1.15-.21-2.42-.37-2.92-1.64-.22-.55,3.23-4.03,3.84-3.86,2.14.58,1.34,2.72,1.67,4.05.4,1.6-1.58,1.04-2.59,1.44Z"/><path class="cls-9" d="m506.03,47.9c1.41,2,.98,4.22,1.52,6.19.37,1.36-1.17,1.41-1.94,1.56-.89.17-1.11-.75-1.07-1.54.1-2.07-.5-4.28,1.5-6.21Z"/><path class="cls-1" d="m406.88,70.38c-1.85,1.51-3.44,2.84-5.08,4.11-.48.37-1.16,1-1.68.29-.46-.63-.6-1.71.14-2.2,1.88-1.24,3.5-3.36,6.61-2.21Z"/><path class="cls-5" d="m243.6,66.25c-.96-.34-2.6.35-2.62-1.65,0-.81.05-1.47,1.15-1.41.56.03,1.12-.13,1.68-.21.66-.09,1.32-1.2,1.88-.41.56.78.27,1.89,0,2.84-.31,1.12-1.24.81-2.1.84Z"/><path class="cls-7" d="m297.77,46.87c-1.34.14-2.08-.36-2-1.78.15-2.95,3.11-.92,4.22-2.34.23-.3.97.41.81,1.12-.38,1.64-.79,3.27-3.02,3.01Z"/><path class="cls-9" d="m415.17,59.49c.21-.89-.5-2.32.6-2.56,1.17-.26,2.1,1.03,3.08,1.73.26.19.33.82.11.8-2.62-.22.09,3.72-2.54,3.27-1.99-.35-.88-2.11-1.25-3.23Z"/><path class="cls-5" d="m172.08,66.61c2.04.15,2.7,2,3.99,2.97.66.49-.26.97-.72,1.13-1.11.38-2.36,1.07-3.14-.54-.56-1.16-.35-2.33-.13-3.56Z"/><path class="cls-7" d="m494.09,69.06c.3-.69-.36-1.98.85-1.68,1.6.39,2.76,1.83,3.42,3.17.33.67-1.34,1.14-2.31,1.16-1.98.05-1.62-1.59-1.96-2.64Z"/><path class="cls-4" d="m246.82,48.02c.47.83.03,1.63.02,2.41,0,.73.38,1.78-.77,2.04-.99.22-1.93-.12-2.79-.66-.97-.61-.12-1.12.13-1.59.18-.33.57-.57.92-.77.82-.47,1.45-1.28,2.5-1.42Z"/><path class="cls-16" d="m298.81,15.81c-1.21.09-2.24-.06-2.07-1.63.28-2.48,2.64-1.47,3.94-2.23.58-.34,1.19.27.93.93-.52,1.33-.56,3.25-2.81,2.92Z"/><path class="cls-5" d="m425.03,73.81c.25-.57-.3-2.02.77-1.55,1.4.62,2.76,1.8,3.55,3.1.32.53-1.35,1.13-2.34,1.17-1.98.08-1.86-1.41-1.97-2.72Z"/><path class="cls-6" d="m540.05,60.01c1.14.7,2.13,1.25,3.04,1.9.47.33,1.47.59.99,1.38-.59.97-1.48,1.69-2.83,1.54-.95-.11-1.23-.61-1.21-1.47.03-1.06,0-2.12,0-3.35Z"/><path class="cls-11" d="m306.04,40.16c.42,1.15.3,2.2-.15,3.15-.26.56.12,1.58-1.07,1.62-.99.04-1.69-.51-2.43-.98-.44-.28-.41-.73.04-.97,1.31-.69,1.89-2.27,3.61-2.82Z"/><path class="cls-9" d="m291.99,72.07c-1.53.43-1.8-.9-2.09-2.06-.15-.59-.33-1.42.28-1.8.69-.44,1.18.06,1.48.74.17.39.54.5.95.64.67.22,2.1-.9,1.88,1.08-.18,1.61-1.27,1.35-2.5,1.41Z"/><path class="cls-7" d="m181.72,20.91c1.87,1.22,4.08,1.42,4,3.4-.04,1.06-2.14,1.6-3.04,1.22-1.87-.8-.57-2.68-.97-4.62Z"/><path class="cls-7" d="m173.89,53.38c.12-.57-.37-1.82,1.01-1.51,1.32.3,2.93.96,3.12,2.3.17,1.18-1.28,1.59-2.5,1.63-1.75.05-1.66-1.14-1.62-2.42Z"/><path class="cls-16" d="m515.62,76.5c-1.1,0-2.14.06-2.21-1.36-.07-1.39,1.02-1.41,1.95-1.6.24-.05.49-.08.73-.03.82.17,1.07-1.91,2.05-.59.46.62.16,1.48-.13,2.3-.47,1.35-1.4,1.37-2.38,1.29Z"/><path class="cls-5" d="m213.85,24.74c1.1.83,3.14,1.17,3.29,2.76.17,1.76-1.99,1.32-2.89,1.34-1.47.03-1.27-1.62-1.35-2.72-.04-.55-.32-1.41.95-1.38Z"/><path class="cls-16" d="m332.76,40.8c.22-.6-.45-1.57.71-1.75.77-.12,3.3,1.94,3.25,2.63-.14,1.63-1.73,1.54-2.6,1.63-1.83.18-1.17-1.49-1.36-2.5Z"/><path class="cls-9" d="m281.08,24.63c-1.51.21-2.54.13-2.85-1.4-.13-.65-.49-1.33.06-1.82.6-.54,1.21-.03,1.78.28.35.19.71.43,1.09.5.86.16,2.07-.37,1.85,1.4-.21,1.68-1.43.88-1.93,1.04Z"/><path class="cls-7" d="m26.85,49.57c.21-.51-.53-1.91.88-1.62,1.39.28,3.11.98,3.25,2.54.09,1.04-1.46,1.25-2.55,1.32-1.6.09-1.68-.94-1.58-2.24Z"/><path class="cls-7" d="m340.56,85.99c-.72-.37-2.12.53-2.3-1.03-.18-1.59,1-1.61,2.12-1.6.16,0,.32-.04.49-.05.81-.03,1.54-1.39,2.37-.26.49.67-.09,1.42-.32,2.1-.41,1.21-1.46.75-2.37.83Z"/><path class="cls-6" d="m233.53,74.08c-1.44.23-1.49-1.13-1.42-2.53.03-.57-.25-1.67.76-1.37,1.45.43,3.18,1.15,3.49,2.7.25,1.26-1.31,1.05-2.84,1.2Z"/><path class="cls-7" d="m276.09,71c1.18.64,3.03,1.02,3.07,2.59.03,1.51-1.9,1.14-2.89,1.32-1.4.26-1.24-1.15-1.2-2.08.02-.7-.4-1.72,1.03-1.83Z"/><path class="cls-16" d="m273.74,30.95c.96.54,1.84.74,2.15,1.27.46.79,2.01,1.12,1.43,2.27-.51,1.02-1.98.88-2.85.88-1.35.01-.82-1.48-.9-2.37-.05-.56.08-1.12.16-2.05Z"/><path class="cls-7" d="m421.55,51.8c-1.92.41-2.06-.77-1.9-2.11.07-.61-.46-1.56.68-1.73.92-.13,3.33,2.02,3.24,2.84-.15,1.42-1.28.86-2.03.99Z"/><path class="cls-11" d="m366.03,34.04c.55,1.13.28,2.11.3,3.05.02,1.08-.92,1.27-1.66,1.37-.87.11-1.59-.5-2.01-1.16-.56-.89.33-1.27.91-1.67.79-.54,1.61-1.03,2.47-1.58Z"/><path class="cls-8" d="m102.93,82.84c.94-.98,1.87-1.97,2.83-2.93.27-.26.54-.75.99-.5.54.3.65.93.63,1.48-.06,1.67-1.8,2.75-4.03,2.54-.14-.2-.28-.39-.42-.59Z"/><path class="cls-7" d="m56.29,73.74c-1.17.15-1.38-.57-1.35-1.63.03-1.13.55-1.64,1.65-1.57,1.09.07,2.11.48,2.42,1.58.21.77-1.34,1.65-2.72,1.62Z"/><path class="cls-7" d="m491.41,39.11c.77-.27,1.73-1.13,2.22.08.42,1.03-.26,2.21-.83,3.03-.65.95-3.5-.03-4-1.25,1.48.22,2.61-.04,2.61-1.87Z"/><path class="cls-9" d="m102.93,82.84c.14.2.28.39.42.59-1,2.27-2.43,0-3.68.28-.73.17-.77-1.01-.79-1.76-.02-.95.58-.94,1.27-1.05,1.6-.25,2.45.44,2.78,1.95Z"/><path class="cls-9" d="m63.59,85.87c-1.36.25-2.09-.48-2.19-1.96-.04-.56-.18-1.14.41-1.54.71-.49.92.32,1.37.51.36.15.68.41,1.05.48.73.14,1.7-.26,1.62,1.13-.09,1.47-1.1,1.35-2.26,1.39Z"/><path class="cls-16" d="m187.21,47.81c-.02-.62-.11-1.87.95-1.56,1.21.36,2.93,1.16,3.05,2.33.12,1.24-1.79.9-2.74,1.18-1.2.35-1.27-.85-1.26-1.95Z"/><path class="cls-11" d="m154.62,81.42c-.5,1.3.14,2.87-.92,4.04-.32.32-.71.38-1.14.28-.92.23-1.74-.1-2.05-.89-.37-.93.7-1.23,1.24-1.47,1.1-.48,1.43-2.08,2.91-1.93,0,0-.04-.04-.04-.04Z"/><path class="cls-4" d="m533.27,63.14c1.96-.42,3.12.9,4.36,2.02-.17,1.85-1.6,1.6-2.7,1.41-1.97-.34-1.65-2.01-1.67-3.43Z"/><path class="cls-8" d="m366.13,62.16c-.63-.37-1.66-.61-1.36-1.24.57-1.2,1.25-2.58,2.62-3,.8-.25.91.82.93,1.38.06,1.54-1.31,2.03-2.2,2.87Z"/><path class="cls-7" d="m384.19,55.71c1.07.7,3.23,1.16,2.77,2.37-.56,1.47-2.57,1.23-4.11.69,0,0-.02-.01-.02-.01l.06-.02c.54-.78.19-1.69.36-2.53.31-.17.63-.34.94-.51Z"/><path class="cls-8" d="m329.38,27.83c.15,1-.1,1.31-.76,1.15-1.09-.26-2.38-.29-2.34-1.93.02-.78.11-1.58,1.13-1.55,1.74.05,1.28,1.84,1.97,2.33Z"/><path class="cls-8" d="m444.35,67.55c-1.78-.91-3.97-.12-3.53-2.74.09-.56.06-1.1.86-1.21.79-.11,1.18.09,1.4.89.24.84.66,1.63,1.27,3.07Z"/><path class="cls-11" d="m391.76,55.28c.2.08.51.11.58.26.46.91-.36,1.67-.39,2.56-.03.82-.96.98-1.65,1.09-.73.11-1.14-.54-1.65-.92-.34-.25-.18-.62.08-.82.98-.73,1.98-1.43,3.03-2.18Z"/><path class="cls-11" d="m407.22,78.03c.41,1.87-.52,2.04-1.74,1.94-.71-.06-1.53.14-1.88-.71-.17-.42,2.61-2.88,3.11-2.76,1.1.28.38,1.22.52,1.52Z"/><path class="cls-8" d="m346.88,80.32c-1.2-.35-3,.53-3.24-1.53-.09-.74.2-1.68,1-1.71,2.13-.08,1.41,2.14,2.24,3.24Z"/><path class="cls-8" d="m244.98,69.19c.56,1,.62,1.72,1.11,2.3.57.68.17,1.48-.48,1.83-.46.25-1.11.75-1.73.27-.6-.47-.49-1.21-.28-1.78.29-.8.78-1.53,1.37-2.62Z"/><path class="cls-11" d="m210.17,48.65c.99.12,1.45.71,1.45,1.64,0,.91-.38,1.63-1.39,1.63-.98,0-1.43-.66-1.43-1.6,0-.92.4-1.54,1.37-1.67Z"/><path class="cls-8" d="m444.61,80.93c.62-1.13,1.07-2.48,2.42-2.42.72.03,1.13,1.19.86,1.77-.69,1.46-2.15.28-3.28.66Z"/><path class="cls-11" d="m270.12,88.69s.02-.04.02-.04c-.54-.05-1.11,0-1.63-.16-.94-.27-1.54-.86-1.33-1.96.17-.9.87-1.13,1.61-1.15,1.08-.04,1.31.74,1.32,1.63,0,.56,0,1.12,0,1.68Z"/><path class="cls-8" d="m365.23,85.9c1.55,1.32,1.09,3.05,1.18,5.06-1.03-1.77-3.53-2.8-1.18-5.06Z"/><path class="cls-12" d="m180.97,85.23c1.72.1,1.28,1.73,1.76,2.68.24.48-.14,1.06-.74.84-1-.35-2.24-.52-2.2-2.08.02-.83.13-1.45,1.18-1.44Z"/><path class="cls-11" d="m102.08,52.29c-.25.84-.78,1.31-1.64,1.15-.89-.17-1.22-.85-1.03-1.67.17-.72.68-1.57,1.4-1.36.66.2,1.41.89,1.27,1.88Z"/><path class="cls-1" d="m241.03,44.58c.2,1.01-.22,1.8-1.19,1.69-1.22-.13-1.09-1.42-1.28-2.29-.24-1.14.68-1.04,1.42-1.07,1.37-.06,1.05.91,1.05,1.67Z"/><path class="cls-11" d="m480.52,19.7c-.02.47-.5,1.04-1.48.98-1.02-.06-1.3-.79-1.3-1.68,0-.92.5-1.24,1.38-1.26,1.05-.02,1.45.5,1.4,1.95Z"/><path class="cls-1" d="m158.11,80.85c-1.16.19-2.32.38-3.49.57,0,0,.04.04.04.04-.04-1.22-.91-2.4-.16-3.65-.03.13-.09.38-.08.38,1.12.3,2.04.94,2.94,1.62.26.2.48.43.73.65,0,.13,0,.26.01.4Z"/><path class="cls-8" d="m46.44,43.69c-.99,1.04-1.74,1.99-2.66,2.72-.36.28-.6-.36-.61-.78-.03-1.12.19-2.21,1.39-2.54.48-.13,1.12.34,1.88.6Z"/><path class="cls-1" d="m227.9,59.09c.99.94,2.84,1.22,2.3,3.11-.18.65-.75.7-1.17.51-1.67-.74-.95-2.33-1.13-3.63Z"/><path class="cls-4" d="m254.5,62.19c.05.48-.72.43-1.47.48-1.42.1-1.5-.9-1.64-1.89-.12-.89.35-1.07,1.14-1.11,1.4-.08,1.73.79,1.97,2.52Z"/><path class="cls-8" d="m382.83,58.76s.02.01.02.01c-.49.52-1.05.28-1.58.14-.76-.2-1.69-.23-1.58-1.42.05-.58.09-1.14.79-1.34,1.09-.31,1.42.44,1.75,1.22.19.45.39.89.58,1.33,0,0,.02.06.02.06Z"/><path class="cls-11" d="m7.11,28.09c.02.81,0,1.59-1.01,1.61-.99.03-1.44-.57-1.46-1.52-.02-.9.27-1.65,1.29-1.69,1.11-.04,1.27.76,1.19,1.6Z"/><path class="cls-11" d="m507.91,85.76c-.08.94-.48,1.61-1.52,1.5-.91-.1-1.47-.6-1.4-1.64.08-1.12.8-1.29,1.7-1.27.94.02,1.32.5,1.22,1.41Z"/><path class="cls-11" d="m85.87,20.71c-1-.09-1.38-.7-1.36-1.65.02-.88.44-1.3,1.36-1.32.9-.01,1.37.23,1.24,1.25-.11.83-.06,1.68-1.23,1.71Z"/><path class="cls-8" d="m304.73,24.85c-.43.07-.58-.23-.68-.55-.27-.9.14-1.69.68-2.27.61-.66,1.73-.62,2.25-.13.7.68-.53.9-.76,1.41-.31.68-.73,1.28-1.48,1.54Z"/><path class="cls-12" d="m499.4,21.22c1.64.44,3.08.3,2.71,2.35-.19,1.04-.82,1.28-1.5,1.07-1.92-.6-.62-2.11-1.22-3.41Z"/><path class="cls-4" d="m193.66,68.13c.22,1.06-.23,1.37-1.02,1.39-.76.02-1.64-.05-1.69-.95-.05-1.01.93-1.63,1.7-1.8,1.06-.23.61,1.06,1,1.36Z"/><path class="cls-8" d="m233.46,86.38c-1.29.14-1.11-.8-1.25-1.45-.17-.8.12-1.23,1.02-1.18.83.05,1.44.32,1.47,1.25.03.92-.58,1.24-1.24,1.38Z"/><path class="cls-11" d="m34.86,34.52c-.07.93-.45,1.49-1.32,1.52-.84.03-1.41-.41-1.44-1.27-.03-.84.48-1.39,1.31-1.44.84-.05,1.31.47,1.46,1.19Z"/><path class="cls-12" d="m392.43,44.3s-.05,0-.05,0c2.48.11,1.09,2.34,1.98,3.38-1.06-.38-2.52.15-2.81-1.3-.14-.73-.53-1.87.87-2.08Z"/><path class="cls-8" d="m284.55,67.94c.19,1.01,1.53,2.03-.03,2.93-.64.37-1.28.13-1.48-.33-.59-1.33.93-1.69,1.51-2.6Z"/><path class="cls-12" d="m121.59,79.85c-.03.71-.17,1.28-.83.89-.8-.46-2.32-.1-2.15-1.78.07-.7.22-1.49.99-1.41,1.36.14,1.65,1.37,1.99,2.3Z"/><path class="cls-9" d="m491.41,39.11c0,1.83-1.13,2.09-2.61,1.87,0-1.02,0-2.04,0-3.11,1,.18,1.8.71,2.61,1.24Z"/><path class="cls-11" d="m420.64,26.33c-.07.91-.56,1.35-1.45,1.31-.77-.04-1.24-.51-1.26-1.24-.02-.85.49-1.41,1.35-1.44.89-.03,1.31.53,1.36,1.38Z"/><path class="cls-1" d="m206.82,80.61c.24.95-.5.73-1,.78-1.03.1-1.75-.16-1.84-1.37-.07-.92.34-1.39,1.21-1.47,1.55-.15,1.06,1.35,1.64,2.06Z"/><path class="cls-4" d="m454.2,48.37c-2.46-.8-2.58-.89-1.95-1.71.41-.54.64-1.71,1.41-1.48,1.26.37.68,1.77,1.01,2.7,0,0,.03-.02.03-.02-.31.05-.68.02-.52.53h.02Z"/><path class="cls-12" d="m68.28,49.25c-.01.7-.12,1.32-.8.93-.8-.46-2.33-.1-2.18-1.79.06-.7.25-.98,1-1.03,1.56-.11,1.55,1.16,1.97,1.9Z"/><path class="cls-1" d="m459.54,82.13c-1.02-.37-2,1.61-2.9.08-.46-.77-.1-1.83.72-2.08,1.33-.41,1.67.88,2.19,2Z"/><path class="cls-12" d="m131.12,66.08c1.44.06,2.12.67,2.27,1.78.07.53.13,1.34-.76,1.12-.97-.24-2.15-.39-2.17-1.85,0-.69.18-1.11.67-1.05Z"/><path class="cls-14" d="m78.05,71.69c.92.02.83.7.94,1.19.28,1.26-.93,1.08-1.51,1.44-.54.33-.91-.14-.93-.69-.05-1.09.96-1.37,1.51-1.95Z"/><path class="cls-12" d="m193.55,55.93c-.49-.16-1.37.06-1.37-.88,0-1.06,1.01-1.48,1.73-1.74.83-.3.68.66.71,1.14.05.7.16,1.54-1.07,1.48Z"/><path class="cls-8" d="m495.58,63.39c.15.94-.22,1.24-1.04,1.29-1.09.08-1.37-.47-1.43-1.41-.04-.68.07-1.09.86-1.06.88.03,1.64.17,1.61,1.18Z"/><path class="cls-8" d="m274.22,27.79c.1,1.15-.69,1.57-1.55,1.77-.56.13-.85-.36-.76-.91.15-.98.87-1.59,1.7-1.83.7-.2.58.55.61.97Z"/><path class="cls-8" d="m12.39,50.88c-.68-.12-1.62.21-1.43-.86.15-.83.92-1.36,1.69-1.5.22-.04.77.91.89,1.47.26,1.13-.74.71-1.15.89Z"/><path class="cls-1" d="m453.39,34.11c.05-1.36.44-2.42,1.64-2.48.81-.04.69,1.1.62,1.62-.21,1.73-1.47.41-2.27.87Z"/><path class="cls-9" d="m481.34,53.25c-.05.96-.41,1.49-1.2,1.49-.92,0-1.25-.59-1.28-1.45-.03-1,.66-.94,1.33-.98.84-.06,1.23.3,1.15.94Z"/><path class="cls-12" d="m421.6,73c-.81-.1-.57-.86-.53-1.48.04-.7.37-1.48,1.11-1.3.75.18.64,1.22.78,1.85.13.56-.46.99-1.36.93Z"/><path class="cls-6" d="m564.74,63.73c-1.06,1.86-2.87.48-4.24.97,1.04-1.97,2.81-.73,4.24-.97Z"/><path class="cls-6" d="m384.19,55.71c-.31.17-.63.34-.94.51-.37-.51-.53-1.31-.06-1.53.75-.36.65.66,1,1.02Z"/><path class="cls-4" d="m152.56,85.75c.43.1.82.04,1.14-.28.02.37.17.81-.4.92-.49.09-.72-.16-.74-.63Z"/><path class="cls-4" d="m158.11,80.85c-.02-.13-.02-.26-.01-.4.18.12.52.28.51.35-.09.34-.3.21-.49.05Z"/><path class="cls-4" d="m537.62,64.71c-.09-.39-.09-.76.25-1.04.54.5-.06.72-.25,1.04Z"/><path class="cls-6" d="m382.83,58.76s-.03-.07-.02-.06.09.04.09.05c0,0-.06.02-.06.02Z"/><path class="cls-2" d="m454.19,48.38c-.17-.51.21-.48.52-.53.05.39-.14.55-.52.53Z"/><path class="cls-15" d="m734.13,39.5c-.33,3.29-.44,6.33-1.04,9.27-.21,1.04.35,3.04-2.02,3.14-1.58.07-3.5,1.18-4.56-.28-.91-1.24.31-2.89.95-4.25,1.25-2.62,1.15-5.53,1.78-8.28.15-.63.1-1.4.99-1.48,1.3-.11,2.65-.34,3.87.16.24.1.04,1.31.04,1.72Z"/><path class="cls-15" d="m1139.71,66.71c1.87.87.48,2.44.39,3.39-.3,3.21-.76,6.41-.9,9.64-.07,1.61-.71,2.16-2.24,2.11-5.5-.2-5.48.88-3.55-4.52,1.13-3.16,1.48-6.41,2.06-9.65,1.38-.48,3.18.89,4.24-.97Z"/><path class="cls-3" d="m882.54,89.06c-.18-2.9-1.4-5.81,1.03-8.45,1.86-2.02,3.36-4.37,5.01-6.57.64-.85,1.18-1.04,2.39-.62,3.14,1.08,3.34,1.04,1.22,3.59-3.26,3.93-5.71,8.5-9.65,12.06Z"/><path class="cls-10" d="m1024.34,15.83c1.96.06,2.87,1.48,2.02,3.07-1.63,3.04-3.36,6.03-5.08,9.02-.22.38-.53.93-1.15.68-.46-.19-.33-.69-.35-1.08-.05-1.05-.09-2.06-.4-3.12-1.04-3.55.58-6.73,3.99-8.25.36-.16.77-.24.97-.31Z"/><path class="cls-3" d="m617.4,74.5c.02-1.64,4.19-5.58,5.55-5.52,1.64.07,2.63,1.86,1.75,3.51-1.55,2.91-3.27,5.72-4.93,8.57-.19.32-.38.92-.85.63-.36-.22-.66-.75-.73-1.19-.32-2.09-.56-4.19-.79-6Z"/><path class="cls-3" d="m1024.54,95.08c-2.51.62-4.72-.22-6.97-.35-.34-.02-.66-.1-.77-.46-.67-2.25-1.38-4.49-1.95-6.76-.29-1.16.87-1.46,1.56-1.91.85-.56,1.6-.09,2.09.64,1.98,2.91,4.48,5.46,6.03,8.85Z"/><path class="cls-14" d="m652.21,70.49c-.97,0-1.7,0-2.44,0-.77-.01-.99-.37-.74-1.1.74-2.21,1.46-4.42,2.15-6.64.26-.82.94-.62,1.41-.52,1.31.27,2.9.36,3.41,1.86.68,2.01.03,4.1-.65,5.93-.43,1.16-2.23.24-3.15.48Z"/><path class="cls-14" d="m1037.96,71.59c.98-2.54,1.45-5.17,3.01-7.3.5-.68.82-.9-.17-1.32-.96-.41-.81-1.32-.65-2.14.13-.62.65-.62,1.16-.63.98-.03,1.43.8,1.41,1.42-.1,2.26,2.07,3.48,2.32,5.6.2,1.66.06,2.56-1.85,2.9-1.72.3-3.55.45-5.23,1.46Z"/><path class="cls-3" d="m769.23,74.79c2.79-1.41,4.73-3.94,7.42-5.48.48-.28.98-.92,1.51-.55.62.44.31,1.16.06,1.77-.69,1.7.28,3.6-.65,5.3-.25.47-.1,1.29-.92,1.14-2.48-.46-4.95-1-7.43-1.51,0-.22,0-.45,0-.67Z"/><path class="cls-10" d="m967.4,47.28c-.05-.06-.1-.17-.16-.18-2.92-.54-2.97-.62-1.62-3.45.38-.81.84-1.58,1.28-2.36.47-.82.35-2.34,1.98-1.85,1.45.43,2.84.86,2.67,2.95-.15,1.92.01,3.8-2.74,3.84-.54,0-1.35.18-1.47,1.04,0,0,.05,0,.05,0Z"/><path class="cls-3" d="m634.87,28.62c-1.77.29-2.35-.52-2.54-2.3-.18-1.61-.42-3.2-.43-4.83,0-1.19.56-1.6,1.47-.98,1.54,1.04,3.14,2.11,4.34,3.5,1,1.15-.29,2.58-.47,3.88-.15,1.03-1.44.78-2.36.74Z"/><path class="cls-13" d="m668.42,72.8c-.03,1.15.5,2.5-.98,3.18-1.71.79-3.55,1.12-5.4,1.38-.31.04-.52-.32-.35-.71.99-2.27,1.8-4.64,3.06-6.75.48-.8,1.99-.14,3.01.1.86.2.79.9.73,1.57-.04.41-.04.81-.07,1.22Z"/><path class="cls-10" d="m622.13,53.78c-.24,1.62-.52,3.19-.68,4.77-.18,1.78-1.82.93-2.67,1.54-.68.49-1.38-.11-1.71-.87-.57-1.34-1.4-3.32-.59-4.06,1.46-1.33,3.14-2.93,5.25-3.15.93-.1.02,1.2.39,1.76Z"/><path class="cls-3" d="m714.96,92.62c.9-2.43,1.63-4.5,2.45-6.53.35-.87,1.06-1.66,2.07-1.05.86.52,2.85,0,2.26,2.1-.35,1.25.83,2.81-.04,3.63-.84.79-2.42.79-3.68,1.12-.87.23-1.74.42-3.07.73Z"/><path class="cls-3" d="m589.89,51.37c1.06-2.44,1.93-4.54,2.87-6.61.69-1.53,2.12-.81,3.21-.83,1.16-.01.94,1.1.97,1.88.04.81-.15,1.69.11,2.42.35.99-.02,1.35-.83,1.61-1.92.63-3.85,1.24-6.34,1.53Z"/><path class="cls-10" d="m829.47,73.59c.15-2.62,1.56-4.57,2.25-6.76.3-.96,1.21-.93,1.5-.62.72.75,2.35-.3,2.49,1.34,0,.08.02.17,0,.24-.36,1.44,1.54,3.11.27,4.1-1.77,1.38-4.17,1.54-6.51,1.7Z"/><path class="cls-10" d="m581.44,80.98c.57-2.23,1.29-4.02,2.11-5.77.47-1,1.23-.72,1.31-.04.24,2,1.73,3.39,2.35,5.24.59,1.76-.51,2.09-1.2,2.91-.84,1-1.67.4-2.34-.17-.83-.71-2.51-.77-2.23-2.16Z"/><path class="cls-3" d="m966.16,19.74c.08.57-.17.91-.72,1.1-1.58.54-3.14,1.12-4.72,1.67-1.31.46-2,.13-1.42-1.34.68-1.73,1.47-3.41,2.24-5.11.55-1.2,1.72-.76,2.61-.8.95-.04,1.3.7,1.39,1.65.09.95.4,1.88.61,2.82Z"/><path class="cls-9" d="m1133.06,25.2c2.88.1,5.22,3.58,4.09,5.97-.79,1.68-2.78.92-4.16,1.47-.95.38-.54-1.2-.76-1.89-.34-1.08-.3-2.23-.73-3.33-.62-1.57-.15-2.57,1.57-2.21Z"/><path class="cls-14" d="m823.35,49.72c.87-2.43,1.52-4.34,2.24-6.23.68-1.78,2.21-1.65,3.69-1.49,1.84.19.84,1.57,1.02,2.47.43,2.21-.07,3.51-2.71,3.61-1.27.05-2.5.94-4.24,1.64Z"/><path class="cls-10" d="m597.91,17.95c-.18,1.47-.39,2.92-.53,4.36-.06.59-.31.8-.89.93-2.76.62-4.53-1.05-3.97-3.79.56-2.76,1.8-3.78,4.5-3.58,1.55.12.51,1.41.89,2.07Z"/><path class="cls-9" d="m700.46,30.92c.34-4.58,3.39-6.45,6.61-4.4.9.57,1,.96.28,1.61-1.46,1.29-2.93,2.55-4.19,4.06-.36.43-.91,1.21-1.6.76-.73-.49-1.32-1.25-1.09-2.02Z"/><path class="cls-16" d="m956.09,83.68c-.69.47-1.35.73-1.73,1.21-1.1,1.39-2.34,1.26-3.65.48-1.42-.85-.78-2-.42-3.15,1-3.15.96-3.15,3.37-.76.74.74,1.54,1.42,2.42,2.23Z"/><path class="cls-7" d="m920.5,68.14c-1.95-.14-2.61-.77-1.99-2.82,1.23-4.05,1.12-4.12,3.89-1.36.68.68,2.26,1.17,1.71,2.3-.65,1.31-2.24,1.69-3.61,1.88Z"/><path class="cls-16" d="m1094.42,31.21c.22-.67-.35-2.43,1.47-3,.8-.25,4.57,3.4,4.21,4.05-.62,1.11-1.86,1.7-3.1,1.43-1.05-.23-3.19.76-2.58-2.48Z"/><path class="cls-9" d="m1029.64,50.86c1.74-.26,2.06-2.19,3.64-3.04.45,1.1.99,2.14,1.28,3.23.24.89,1.22,2.06-.28,2.72-1.33.59-2.85,1.21-3.99-.23-.48-.6-2.02-.84-1.11-2.19h-.02c.37.03.57-.13.52-.52l-.03.02Z"/><path class="cls-14" d="m696.85,44.44c-2.36.25-2.33-1.07-1.73-2.59.45-1.12.02-2.94,1.16-3.3,1.3-.4,1.78,1.35,2.52,2.25.63.76,2.33,1.33,1.7,2.28-.68,1.04-2.26,1.52-3.66,1.35Z"/><path class="cls-3" d="m687.36,71.66c1.12.99,2.25,1.92,3.3,2.93,1.55,1.5,1.39,2.2-.58,2.86-.3.1-.62.17-.91.29-1.06.44-2.1.38-3-.3-1.07-.81-.11-1.73-.03-2.62.11-1.19.71-2.12,1.22-3.16Z"/><path class="cls-9" d="m1112.59,67.69c.08.15.09.29.01.44-1.25-1.12-2.4-2.44-4.36-2.02-.73-1.5-1.37-3.02-.95-4.89,2.07.61,3.67,1.77,5.24,2.99.97.75.99,1.52.31,2.43-.35.28-.35.65-.25,1.04Z"/><path class="cls-9" d="m632.64,43.11c-1.15-.21-2.42-.37-2.92-1.64-.22-.55,3.23-4.03,3.84-3.86,2.14.58,1.34,2.72,1.67,4.05.4,1.6-1.58,1.04-2.59,1.44Z"/><path class="cls-9" d="m1081,50.88c1.41,2,.98,4.22,1.52,6.19.37,1.36-1.17,1.41-1.94,1.56-.89.17-1.11-.75-1.07-1.54.1-2.07-.5-4.28,1.5-6.21Z"/><path class="cls-1" d="m981.85,73.36c-1.85,1.51-3.44,2.84-5.08,4.11-.48.37-1.16,1-1.68.29-.46-.63-.6-1.71.14-2.2,1.88-1.24,3.5-3.36,6.61-2.21Z"/><path class="cls-5" d="m818.57,69.23c-.96-.34-2.6.35-2.62-1.65,0-.81.05-1.47,1.15-1.41.56.03,1.12-.13,1.68-.21.66-.09,1.32-1.2,1.88-.41.56.78.27,1.89,0,2.84-.31,1.12-1.24.81-2.1.84Z"/><path class="cls-7" d="m872.74,49.85c-1.34.14-2.08-.36-2-1.78.15-2.95,3.11-.92,4.22-2.34.23-.3.97.41.81,1.12-.38,1.64-.79,3.27-3.02,3.01Z"/><path class="cls-9" d="m990.14,62.47c.21-.89-.5-2.32.6-2.56,1.17-.26,2.1,1.03,3.08,1.73.26.19.33.82.11.8-2.62-.22.09,3.72-2.54,3.27-1.99-.35-.88-2.11-1.25-3.23Z"/><path class="cls-5" d="m747.05,69.59c2.04.15,2.7,2,3.99,2.97.66.49-.26.97-.72,1.13-1.11.38-2.36,1.07-3.14-.54-.56-1.16-.35-2.33-.13-3.56Z"/><path class="cls-7" d="m1069.06,72.04c.3-.69-.36-1.98.85-1.68,1.6.39,2.76,1.83,3.42,3.17.33.67-1.34,1.14-2.31,1.16-1.98.05-1.62-1.59-1.96-2.64Z"/><path class="cls-4" d="m821.79,51c.47.83.03,1.63.02,2.41,0,.73.38,1.78-.77,2.04-.99.22-1.93-.12-2.79-.66-.97-.61-.12-1.12.13-1.59.18-.33.57-.57.92-.77.82-.47,1.45-1.28,2.5-1.42Z"/><path class="cls-16" d="m873.78,18.79c-1.21.09-2.24-.06-2.07-1.63.28-2.48,2.64-1.47,3.94-2.23.58-.34,1.19.27.93.93-.52,1.33-.56,3.25-2.81,2.92Z"/><path class="cls-5" d="m1000,76.79c.25-.57-.3-2.02.77-1.55,1.4.62,2.76,1.8,3.55,3.1.32.53-1.35,1.13-2.34,1.17-1.98.08-1.86-1.41-1.97-2.72Z"/><path class="cls-6" d="m1115.02,62.99c1.14.7,2.13,1.25,3.04,1.9.47.33,1.47.59.99,1.38-.59.97-1.48,1.69-2.83,1.54-.95-.11-1.23-.61-1.21-1.47.03-1.06,0-2.12,0-3.35Z"/><path class="cls-11" d="m881.01,43.14c.42,1.15.3,2.2-.15,3.15-.26.56.12,1.58-1.07,1.62-.99.04-1.69-.51-2.43-.98-.44-.28-.41-.73.04-.97,1.31-.69,1.89-2.27,3.61-2.82Z"/><path class="cls-9" d="m866.96,75.05c-1.53.43-1.8-.9-2.09-2.06-.15-.59-.33-1.42.28-1.8.69-.44,1.18.06,1.48.74.17.39.54.5.95.64.67.22,2.1-.9,1.88,1.08-.18,1.61-1.27,1.35-2.5,1.41Z"/><path class="cls-7" d="m756.69,23.89c1.87,1.22,4.08,1.42,4,3.4-.04,1.06-2.14,1.6-3.04,1.22-1.87-.8-.57-2.68-.97-4.62Z"/><path class="cls-7" d="m748.86,56.36c.12-.57-.37-1.82,1.01-1.51,1.32.3,2.93.96,3.12,2.3.17,1.18-1.28,1.59-2.5,1.63-1.75.05-1.66-1.14-1.62-2.42Z"/><path class="cls-16" d="m1090.58,79.48c-1.1,0-2.14.06-2.21-1.36-.07-1.39,1.02-1.41,1.95-1.6.24-.05.49-.08.73-.03.82.17,1.07-1.91,2.05-.59.46.62.16,1.48-.13,2.3-.47,1.35-1.4,1.37-2.38,1.29Z"/><path class="cls-5" d="m788.82,27.72c1.1.83,3.14,1.17,3.29,2.76.17,1.76-1.99,1.32-2.89,1.34-1.47.03-1.27-1.62-1.35-2.72-.04-.55-.32-1.41.95-1.38Z"/><path class="cls-16" d="m907.73,43.79c.22-.6-.45-1.57.71-1.75.77-.12,3.3,1.94,3.25,2.63-.14,1.63-1.73,1.54-2.6,1.63-1.83.18-1.17-1.49-1.36-2.5Z"/><path class="cls-9" d="m856.05,27.61c-1.51.21-2.54.13-2.85-1.4-.13-.65-.49-1.33.06-1.82.6-.54,1.21-.03,1.78.28.35.19.71.43,1.09.5.86.16,2.07-.37,1.85,1.4-.21,1.68-1.43.88-1.93,1.04Z"/><path class="cls-7" d="m601.82,52.55c.21-.51-.53-1.91.88-1.62,1.39.28,3.11.98,3.25,2.54.09,1.04-1.46,1.25-2.55,1.32-1.6.09-1.68-.94-1.58-2.24Z"/><path class="cls-7" d="m915.53,88.97c-.72-.37-2.12.53-2.3-1.03-.18-1.59,1-1.61,2.12-1.6.16,0,.32-.04.49-.05.81-.03,1.54-1.39,2.37-.26.49.67-.09,1.42-.32,2.1-.41,1.21-1.46.75-2.37.83Z"/><path class="cls-6" d="m808.5,77.07c-1.44.23-1.49-1.13-1.42-2.53.03-.57-.25-1.67.76-1.37,1.45.43,3.18,1.15,3.49,2.7.25,1.26-1.31,1.05-2.84,1.2Z"/><path class="cls-7" d="m851.06,73.98c1.18.64,3.03,1.02,3.07,2.59.03,1.51-1.9,1.14-2.89,1.32-1.4.26-1.24-1.15-1.2-2.08.02-.7-.4-1.72,1.03-1.83Z"/><path class="cls-16" d="m848.71,33.93c.96.54,1.84.74,2.15,1.27.46.79,2.01,1.12,1.43,2.27-.51,1.02-1.98.88-2.85.88-1.35.01-.82-1.48-.9-2.37-.05-.56.08-1.12.16-2.05Z"/><path class="cls-7" d="m996.52,54.78c-1.92.41-2.06-.77-1.9-2.11.07-.61-.46-1.56.68-1.73.92-.13,3.33,2.02,3.24,2.84-.15,1.42-1.28.86-2.03.99Z"/><path class="cls-11" d="m941,37.02c.55,1.13.28,2.11.3,3.05.02,1.08-.92,1.27-1.66,1.37-.87.11-1.59-.5-2.01-1.16-.56-.89.33-1.27.91-1.67.79-.54,1.61-1.03,2.47-1.58Z"/><path class="cls-8" d="m677.9,85.82c.94-.98,1.87-1.97,2.83-2.93.27-.26.54-.75.99-.5.54.3.65.93.63,1.48-.06,1.67-1.8,2.75-4.03,2.54-.14-.2-.28-.39-.42-.59Z"/><path class="cls-7" d="m631.26,76.73c-1.17.15-1.38-.57-1.35-1.63.03-1.13.55-1.64,1.65-1.57,1.09.07,2.11.48,2.42,1.58.21.77-1.34,1.65-2.72,1.62Z"/><path class="cls-7" d="m1066.38,42.09c.77-.27,1.73-1.13,2.22.08.42,1.03-.26,2.21-.83,3.03-.65.95-3.5-.03-4-1.25,1.48.22,2.61-.04,2.61-1.87Z"/><path class="cls-9" d="m677.9,85.82c.14.2.28.39.42.59-1,2.27-2.43,0-3.68.28-.73.17-.77-1.01-.79-1.76-.02-.95.58-.94,1.27-1.05,1.6-.25,2.45.44,2.78,1.95Z"/><path class="cls-9" d="m638.56,88.86c-1.36.25-2.09-.48-2.19-1.96-.04-.56-.18-1.14.41-1.54.71-.49.92.32,1.37.51.36.15.68.41,1.05.48.73.14,1.7-.26,1.62,1.13-.09,1.47-1.1,1.35-2.26,1.39Z"/><path class="cls-16" d="m762.18,50.8c-.02-.62-.11-1.87.95-1.56,1.21.36,2.93,1.16,3.05,2.33.12,1.24-1.79.9-2.74,1.18-1.2.35-1.27-.85-1.26-1.95Z"/><path class="cls-11" d="m729.59,84.4c-.5,1.3.14,2.87-.92,4.04-.32.32-.71.38-1.14.28-.92.23-1.74-.1-2.05-.89-.37-.93.7-1.23,1.24-1.47,1.1-.48,1.43-2.08,2.91-1.93,0,0-.04-.04-.04-.04Z"/><path class="cls-4" d="m1108.24,66.12c1.96-.42,3.12.9,4.36,2.02-.17,1.85-1.6,1.6-2.7,1.41-1.97-.34-1.65-2.01-1.67-3.43Z"/><path class="cls-8" d="m941.1,65.14c-.63-.37-1.66-.61-1.36-1.24.57-1.2,1.25-2.58,2.62-3,.8-.25.91.82.93,1.38.06,1.54-1.31,2.03-2.2,2.87Z"/><path class="cls-7" d="m959.16,58.69c1.07.7,3.23,1.16,2.77,2.37-.56,1.47-2.57,1.23-4.11.69,0,0-.02-.01-.02-.01l.06-.02c.54-.78.19-1.69.36-2.53.31-.17.63-.34.94-.51Z"/><path class="cls-8" d="m904.35,30.81c.15,1-.1,1.31-.76,1.15-1.09-.26-2.38-.29-2.34-1.93.02-.78.11-1.58,1.13-1.55,1.74.05,1.28,1.84,1.97,2.33Z"/><path class="cls-8" d="m1019.32,70.53c-1.78-.91-3.97-.12-3.53-2.74.09-.56.06-1.1.86-1.21.79-.11,1.18.09,1.4.89.24.84.66,1.63,1.27,3.07Z"/><path class="cls-11" d="m966.73,58.27c.2.08.51.11.58.26.46.91-.36,1.67-.39,2.56-.03.82-.96.98-1.65,1.09-.73.11-1.14-.54-1.65-.92-.34-.25-.18-.62.08-.82.98-.73,1.98-1.43,3.03-2.18Z"/><path class="cls-11" d="m982.19,81.01c.41,1.87-.52,2.04-1.74,1.94-.71-.06-1.53.14-1.88-.71-.17-.42,2.61-2.88,3.11-2.76,1.1.28.38,1.22.52,1.52Z"/><path class="cls-8" d="m921.85,83.31c-1.2-.35-3,.53-3.24-1.53-.09-.74.2-1.68,1-1.71,2.13-.08,1.41,2.14,2.24,3.24Z"/><path class="cls-8" d="m819.95,72.18c.56,1,.62,1.72,1.11,2.3.57.68.17,1.48-.48,1.83-.46.25-1.11.75-1.73.27-.6-.47-.49-1.21-.28-1.78.29-.8.78-1.53,1.37-2.62Z"/><path class="cls-11" d="m785.14,51.63c.99.12,1.45.71,1.45,1.64,0,.91-.38,1.63-1.39,1.63-.98,0-1.43-.66-1.43-1.6,0-.92.4-1.54,1.37-1.67Z"/><path class="cls-8" d="m1019.57,83.91c.62-1.13,1.07-2.48,2.42-2.42.72.03,1.13,1.19.86,1.77-.69,1.46-2.15.28-3.28.66Z"/><path class="cls-11" d="m677.05,55.27c-.25.84-.78,1.31-1.64,1.15-.89-.17-1.22-.85-1.03-1.67.17-.72.68-1.57,1.4-1.36.66.2,1.41.89,1.27,1.88Z"/><path class="cls-1" d="m816,47.56c.2,1.01-.22,1.8-1.19,1.69-1.22-.13-1.09-1.42-1.28-2.29-.24-1.14.68-1.04,1.42-1.07,1.37-.06,1.05.91,1.05,1.67Z"/><path class="cls-11" d="m1055.49,22.68c-.02.47-.5,1.04-1.48.98-1.02-.06-1.3-.79-1.3-1.68,0-.92.5-1.24,1.38-1.26,1.05-.02,1.45.5,1.4,1.95Z"/><path class="cls-1" d="m733.08,83.83c-1.16.19-2.32.38-3.49.57,0,0,.04.04.04.04-.04-1.22-.91-2.4-.16-3.65-.03.13-.09.38-.08.38,1.12.3,2.04.94,2.94,1.62.26.2.48.43.73.65,0,.13,0,.26.01.4Z"/><path class="cls-8" d="m621.41,46.67c-.99,1.04-1.74,1.99-2.66,2.72-.36.28-.6-.36-.61-.78-.03-1.12.19-2.21,1.39-2.54.48-.13,1.12.34,1.88.6Z"/><path class="cls-1" d="m802.87,62.07c.99.94,2.84,1.22,2.3,3.11-.18.65-.75.7-1.17.51-1.67-.74-.95-2.33-1.13-3.63Z"/><path class="cls-4" d="m829.47,65.17c.05.48-.72.43-1.47.48-1.42.1-1.5-.9-1.64-1.89-.12-.89.35-1.07,1.14-1.11,1.4-.08,1.73.79,1.97,2.52Z"/><path class="cls-8" d="m957.8,61.75s.02.01.02.01c-.49.52-1.05.28-1.58.14-.76-.2-1.69-.23-1.58-1.42.05-.58.09-1.14.79-1.34,1.09-.31,1.42.44,1.75,1.22.19.45.39.89.58,1.33,0,0,.02.06.02.06Z"/><path class="cls-11" d="m582.08,31.07c.02.81,0,1.59-1.01,1.61-.99.03-1.44-.57-1.46-1.52-.02-.9.27-1.65,1.29-1.69,1.11-.04,1.27.76,1.19,1.6Z"/><path class="cls-11" d="m660.84,23.69c-1-.09-1.38-.7-1.36-1.65.02-.88.44-1.3,1.36-1.32.9-.01,1.37.23,1.24,1.25-.11.83-.06,1.68-1.23,1.71Z"/><path class="cls-8" d="m879.7,27.84c-.43.07-.58-.23-.68-.55-.27-.9.14-1.69.68-2.27.61-.66,1.73-.62,2.25-.13.7.68-.53.9-.76,1.41-.31.68-.73,1.28-1.48,1.54Z"/><path class="cls-12" d="m1074.37,24.21c1.64.44,3.08.3,2.71,2.35-.19,1.04-.82,1.28-1.5,1.07-1.92-.6-.62-2.11-1.22-3.41Z"/><path class="cls-4" d="m768.63,71.11c.22,1.06-.23,1.37-1.02,1.39-.76.02-1.64-.05-1.69-.95-.05-1.01.93-1.63,1.7-1.8,1.06-.23.61,1.06,1,1.36Z"/><path class="cls-8" d="m808.43,89.36c-1.29.14-1.11-.8-1.25-1.45-.17-.8.12-1.23,1.02-1.18.83.05,1.44.32,1.47,1.25.03.92-.58,1.24-1.24,1.38Z"/><path class="cls-11" d="m609.83,37.5c-.07.93-.45,1.49-1.32,1.52-.84.03-1.41-.41-1.44-1.27-.03-.84.48-1.39,1.31-1.44.84-.05,1.31.47,1.46,1.19Z"/><path class="cls-12" d="m967.4,47.28s-.05,0-.05,0c2.48.11,1.09,2.34,1.98,3.38-1.06-.38-2.52.15-2.81-1.3-.14-.73-.53-1.87.87-2.08Z"/><path class="cls-8" d="m859.52,70.92c.19,1.01,1.53,2.03-.03,2.93-.64.37-1.28.13-1.48-.33-.59-1.33.93-1.69,1.51-2.6Z"/><path class="cls-12" d="m696.56,82.83c-.03.71-.17,1.28-.83.89-.8-.46-2.32-.1-2.15-1.78.07-.7.22-1.49.99-1.41,1.36.14,1.65,1.37,1.99,2.3Z"/><path class="cls-9" d="m1066.38,42.09c0,1.83-1.13,2.09-2.61,1.87,0-1.02,0-2.04,0-3.11,1,.18,1.8.71,2.61,1.24Z"/><path class="cls-11" d="m995.61,29.31c-.07.91-.56,1.35-1.45,1.31-.77-.04-1.24-.51-1.26-1.24-.02-.85.49-1.41,1.35-1.44.89-.03,1.31.53,1.36,1.38Z"/><path class="cls-1" d="m781.79,83.59c.24.95-.5.73-1,.78-1.03.1-1.75-.16-1.84-1.37-.07-.92.34-1.39,1.21-1.47,1.55-.15,1.06,1.35,1.64,2.06Z"/><path class="cls-4" d="m1029.17,51.35c-2.46-.8-2.58-.89-1.95-1.71.41-.54.64-1.71,1.41-1.48,1.26.37.68,1.77,1.01,2.7,0,0,.03-.02.03-.02-.31.05-.68.02-.52.53h.02Z"/><path class="cls-12" d="m643.25,52.23c-.01.7-.12,1.32-.8.93-.8-.46-2.33-.1-2.18-1.79.06-.7.25-.98,1-1.03,1.56-.11,1.55,1.16,1.97,1.9Z"/><path class="cls-1" d="m1034.51,85.11c-1.02-.37-2,1.61-2.9.08-.46-.77-.1-1.83.72-2.08,1.33-.41,1.67.88,2.19,2Z"/><path class="cls-12" d="m706.09,69.06c1.44.06,2.12.67,2.27,1.78.07.53.13,1.34-.76,1.12-.97-.24-2.15-.39-2.17-1.85,0-.69.18-1.11.67-1.05Z"/><path class="cls-14" d="m653.02,74.67c.92.02.83.7.94,1.19.28,1.26-.93,1.08-1.51,1.44-.54.33-.91-.14-.93-.69-.05-1.09.96-1.37,1.51-1.95Z"/><path class="cls-12" d="m768.52,58.91c-.49-.16-1.37.06-1.37-.88,0-1.06,1.01-1.48,1.73-1.74.83-.3.68.66.71,1.14.05.7.16,1.54-1.07,1.48Z"/><path class="cls-8" d="m1070.55,66.37c.15.94-.22,1.24-1.04,1.29-1.09.08-1.37-.47-1.43-1.41-.04-.68.07-1.09.86-1.06.88.03,1.64.17,1.61,1.18Z"/><path class="cls-8" d="m849.19,30.78c.1,1.15-.69,1.57-1.55,1.77-.56.13-.85-.36-.76-.91.15-.98.87-1.59,1.7-1.83.7-.2.58.55.61.97Z"/><path class="cls-8" d="m587.36,53.87c-.68-.12-1.62.21-1.43-.86.15-.83.92-1.36,1.69-1.5.22-.04.77.91.89,1.47.26,1.13-.74.71-1.15.89Z"/><path class="cls-1" d="m1028.36,37.09c.05-1.36.44-2.42,1.64-2.48.81-.04.69,1.1.62,1.62-.21,1.73-1.47.41-2.27.87Z"/><path class="cls-9" d="m1056.31,56.23c-.05.96-.41,1.49-1.2,1.49-.92,0-1.25-.59-1.28-1.45-.03-1,.66-.94,1.33-.98.84-.06,1.23.3,1.15.94Z"/><path class="cls-12" d="m996.57,75.98c-.81-.1-.57-.86-.53-1.48.04-.7.37-1.48,1.11-1.3.75.18.64,1.22.78,1.85.13.56-.46.99-1.36.93Z"/><path class="cls-6" d="m1139.71,66.71c-1.06,1.86-2.87.48-4.24.97,1.04-1.97,2.81-.73,4.24-.97Z"/><path class="cls-6" d="m959.16,58.69c-.31.17-.63.34-.94.51-.37-.51-.53-1.31-.06-1.53.75-.36.65.66,1,1.02Z"/><path class="cls-4" d="m733.08,83.83c-.02-.13-.02-.26-.01-.4.18.12.52.28.51.35-.09.34-.3.21-.49.05Z"/><path class="cls-4" d="m1112.59,67.69c-.09-.39-.09-.76.25-1.04.54.5-.06.72-.25,1.04Z"/><path class="cls-6" d="m957.8,61.75s-.03-.07-.02-.06.09.04.09.05c0,0-.06.02-.06.02Z"/><path class="cls-2" d="m1029.16,51.36c-.17-.51.21-.48.52-.53.05.39-.14.55-.52.53Z"/><path class="cls-15" d="m1262.13,37.16c-.33,3.29-.44,6.33-1.04,9.27-.21,1.04.35,3.04-2.02,3.14-1.58.07-3.5,1.18-4.56-.28-.91-1.24.31-2.89.95-4.25,1.25-2.62,1.15-5.53,1.78-8.28.15-.63.1-1.4.99-1.48,1.3-.11,2.65-.34,3.87.16.24.1.04,1.31.04,1.72Z"/><path class="cls-3" d="m1410.54,86.72c-.18-2.9-1.4-5.81,1.03-8.45,1.86-2.02,3.36-4.37,5.01-6.57.64-.85,1.18-1.04,2.39-.62,3.14,1.08,3.34,1.04,1.22,3.59-3.26,3.93-5.71,8.5-9.65,12.06Z"/><path class="cls-10" d="m1552.35,13.49c1.96.06,2.87,1.48,2.02,3.07-1.63,3.04-3.36,6.03-5.08,9.02-.22.38-.53.93-1.15.68-.46-.19-.33-.69-.35-1.08-.05-1.05-.09-2.06-.4-3.12-1.04-3.55.58-6.73,3.99-8.25.36-.16.77-.24.97-.31Z"/><path class="cls-3" d="m1145.4,72.16c.02-1.64,4.19-5.58,5.55-5.52,1.64.07,2.63,1.86,1.75,3.51-1.55,2.91-3.27,5.72-4.93,8.57-.19.32-.38.92-.85.63-.36-.22-.66-.75-.73-1.19-.32-2.09-.56-4.19-.79-6Z"/><path class="cls-3" d="m1552.54,92.74c-2.51.62-4.72-.22-6.97-.35-.34-.02-.66-.1-.77-.46-.67-2.25-1.38-4.49-1.95-6.76-.29-1.16.87-1.46,1.56-1.91.85-.56,1.6-.09,2.09.64,1.98,2.91,4.48,5.46,6.03,8.85Z"/><path class="cls-14" d="m1180.21,68.15c-.97,0-1.7,0-2.44,0-.77-.01-.99-.37-.74-1.1.74-2.21,1.46-4.42,2.15-6.64.26-.82.94-.62,1.41-.52,1.31.27,2.9.36,3.41,1.86.68,2.01.03,4.1-.65,5.93-.43,1.16-2.23.24-3.15.48Z"/><path class="cls-14" d="m1565.96,69.25c.98-2.54,1.45-5.17,3.01-7.3.5-.68.82-.9-.17-1.32-.96-.41-.81-1.32-.65-2.14.13-.62.65-.62,1.16-.63.98-.03,1.43.8,1.41,1.42-.1,2.26,2.07,3.48,2.32,5.6.2,1.66.06,2.56-1.85,2.9-1.72.3-3.55.45-5.23,1.46Z"/><path class="cls-3" d="m1297.23,72.45c2.79-1.41,4.73-3.94,7.42-5.48.48-.28.98-.92,1.51-.55.62.44.31,1.16.06,1.77-.69,1.7.28,3.6-.65,5.3-.25.47-.1,1.29-.92,1.14-2.48-.46-4.95-1-7.43-1.51,0-.22,0-.45,0-.67Z"/><path class="cls-10" d="m1495.4,44.94c-.05-.06-.1-.17-.16-.18-2.92-.54-2.97-.62-1.62-3.45.38-.81.84-1.58,1.28-2.36.47-.82.35-2.34,1.98-1.85,1.45.43,2.84.86,2.67,2.95-.15,1.92.01,3.8-2.74,3.84-.54,0-1.35.18-1.47,1.04,0,0,.05,0,.05,0Z"/><path class="cls-3" d="m1162.87,26.28c-1.77.29-2.35-.52-2.54-2.3-.18-1.61-.42-3.2-.43-4.83,0-1.19.56-1.6,1.47-.98,1.54,1.04,3.14,2.11,4.34,3.5,1,1.15-.29,2.58-.47,3.88-.15,1.03-1.44.78-2.36.74Z"/><path class="cls-10" d="m1571.56,93.32c.16-2.6,2.24-4.17,2.47-6.5.08-.75.98-1.15,1.51-.81.89.57,2.53-.18,2.75,1.39.19,1.37.12,2.77.15,4.16.01.5-.34.69-.78.77-1.99.37-3.88,1.32-6.1,1Z"/><path class="cls-13" d="m1196.42,70.46c-.03,1.15.5,2.5-.98,3.18-1.71.79-3.55,1.12-5.4,1.38-.31.04-.52-.32-.35-.71.99-2.27,1.8-4.64,3.06-6.75.48-.8,1.99-.14,3.01.1.86.2.79.9.73,1.57-.04.41-.04.81-.07,1.22Z"/><path class="cls-10" d="m1150.13,51.44c-.24,1.62-.52,3.19-.68,4.77-.18,1.78-1.82.93-2.67,1.54-.68.49-1.38-.11-1.71-.87-.57-1.34-1.4-3.32-.59-4.06,1.46-1.33,3.14-2.93,5.25-3.15.93-.1.02,1.2.39,1.76Z"/><path class="cls-3" d="m1242.96,90.28c.9-2.43,1.63-4.5,2.45-6.53.35-.87,1.06-1.66,2.07-1.05.86.52,2.85,0,2.26,2.1-.35,1.25.83,2.81-.04,3.63-.84.79-2.42.79-3.68,1.12-.87.23-1.74.42-3.07.73Z"/><path class="cls-3" d="m1117.89,49.03c1.06-2.44,1.93-4.54,2.87-6.61.69-1.53,2.12-.81,3.21-.83,1.16-.01.94,1.1.97,1.88.04.81-.15,1.69.11,2.42.35.99-.02,1.35-.83,1.61-1.92.63-3.85,1.24-6.34,1.53Z"/><path class="cls-10" d="m1357.48,71.25c.15-2.62,1.56-4.57,2.25-6.76.3-.96,1.21-.93,1.5-.62.72.75,2.35-.3,2.49,1.34,0,.08.02.17,0,.24-.36,1.44,1.54,3.11.27,4.1-1.77,1.38-4.17,1.54-6.51,1.7Z"/><path class="cls-10" d="m1109.44,78.64c.57-2.23,1.29-4.02,2.11-5.77.47-1,1.23-.72,1.31-.04.24,2,1.73,3.39,2.35,5.24.59,1.76-.51,2.09-1.2,2.91-.84,1-1.67.4-2.34-.17-.83-.71-2.51-.77-2.23-2.16Z"/><path class="cls-3" d="m1494.16,17.4c.08.57-.17.91-.72,1.1-1.58.54-3.14,1.12-4.72,1.67-1.31.46-2,.13-1.42-1.34.68-1.73,1.47-3.41,2.24-5.11.55-1.2,1.72-.76,2.61-.8.95-.04,1.3.7,1.39,1.65.09.95.4,1.88.61,2.82Z"/><path class="cls-14" d="m1351.35,47.38c.87-2.43,1.52-4.34,2.24-6.23.68-1.78,2.21-1.65,3.69-1.49,1.84.19.84,1.57,1.02,2.47.43,2.21-.07,3.51-2.71,3.61-1.27.05-2.5.94-4.24,1.64Z"/><path class="cls-10" d="m1125.91,15.61c-.18,1.47-.39,2.92-.53,4.36-.06.59-.31.8-.89.93-2.76.62-4.53-1.05-3.97-3.79.56-2.76,1.8-3.78,4.5-3.58,1.55.12.51,1.41.89,2.07Z"/><path class="cls-9" d="m1228.46,28.58c.34-4.58,3.39-6.45,6.61-4.4.9.57,1,.96.28,1.61-1.46,1.29-2.93,2.55-4.19,4.06-.36.43-.91,1.21-1.6.76-.73-.49-1.32-1.25-1.09-2.02Z"/><path class="cls-16" d="m1484.09,81.34c-.69.47-1.35.73-1.73,1.21-1.1,1.39-2.34,1.26-3.65.48-1.42-.85-.78-2-.42-3.15,1-3.15.96-3.15,3.37-.76.74.74,1.54,1.42,2.42,2.23Z"/><path class="cls-7" d="m1448.5,65.8c-1.95-.14-2.61-.77-1.99-2.82,1.23-4.05,1.12-4.12,3.89-1.36.68.68,2.26,1.17,1.71,2.3-.65,1.31-2.24,1.69-3.61,1.88Z"/><path class="cls-9" d="m1557.64,48.52c1.74-.26,2.06-2.19,3.64-3.04.45,1.1.99,2.14,1.28,3.23.24.89,1.22,2.06-.28,2.72-1.33.59-2.85,1.21-3.99-.23-.48-.6-2.02-.84-1.11-2.19h-.02c.37.03.57-.13.52-.52l-.03.02Z"/><path class="cls-14" d="m1224.85,42.1c-2.36.25-2.33-1.07-1.73-2.59.45-1.12.02-2.94,1.16-3.3,1.3-.4,1.78,1.35,2.52,2.25.63.76,2.33,1.33,1.7,2.28-.68,1.04-2.26,1.52-3.66,1.35Z"/><path class="cls-9" d="m1304.85,92.63c-.98-.18-2.05-.37-2.59-1.42-.68-1.32.82-1.52,1.27-2.26.08-.13.22-.27.36-.33.99-.42,1.39-2.43,2.36-1.83,1.47.92,1.56,3.02,1.51,4.6-.03,1.13-1.75,1.04-2.9,1.24Z"/><path class="cls-3" d="m1215.36,69.32c1.12.99,2.25,1.92,3.3,2.93,1.55,1.5,1.39,2.2-.58,2.86-.3.1-.62.17-.91.29-1.06.44-2.1.38-3-.3-1.07-.81-.11-1.73-.03-2.62.11-1.19.71-2.12,1.22-3.16Z"/><path class="cls-9" d="m1160.64,40.77c-1.15-.21-2.42-.37-2.92-1.64-.22-.55,3.23-4.03,3.84-3.86,2.14.58,1.34,2.72,1.67,4.05.4,1.6-1.58,1.04-2.59,1.44Z"/><path class="cls-1" d="m1509.85,71.02c-1.85,1.51-3.44,2.84-5.08,4.11-.48.37-1.16,1-1.68.29-.46-.63-.6-1.71.14-2.2,1.88-1.24,3.5-3.36,6.61-2.21Z"/><path class="cls-5" d="m1346.57,66.89c-.96-.34-2.6.35-2.62-1.65,0-.81.05-1.47,1.15-1.41.56.03,1.12-.13,1.68-.21.66-.09,1.32-1.2,1.88-.41.56.78.27,1.89,0,2.84-.31,1.12-1.24.81-2.1.84Z"/><path class="cls-7" d="m1400.74,47.51c-1.34.14-2.08-.36-2-1.78.15-2.95,3.11-.92,4.22-2.34.23-.3.97.41.81,1.12-.38,1.64-.79,3.27-3.02,3.01Z"/><path class="cls-9" d="m1518.14,60.13c.21-.89-.5-2.32.6-2.56,1.17-.26,2.1,1.03,3.08,1.73.26.19.33.82.11.8-2.62-.22.09,3.72-2.54,3.27-1.99-.35-.88-2.11-1.25-3.23Z"/><path class="cls-5" d="m1275.05,67.25c2.04.15,2.7,2,3.99,2.97.66.49-.26.97-.72,1.13-1.11.38-2.36,1.07-3.14-.54-.56-1.16-.35-2.33-.13-3.56Z"/><path class="cls-7" d="m1597.06,69.7c.3-.69-.36-1.98.85-1.68,1.6.39,2.76,1.83,3.42,3.17.33.67-1.34,1.14-2.31,1.16-1.98.05-1.62-1.59-1.96-2.64Z"/><path class="cls-4" d="m1349.8,48.66c.47.83.03,1.63.02,2.41,0,.73.38,1.78-.77,2.04-.99.22-1.93-.12-2.79-.66-.97-.61-.12-1.12.13-1.59.18-.33.57-.57.92-.77.82-.47,1.45-1.28,2.5-1.42Z"/><path class="cls-16" d="m1401.78,16.45c-1.21.09-2.24-.06-2.07-1.63.28-2.48,2.64-1.47,3.94-2.23.58-.34,1.19.27.93.93-.52,1.33-.56,3.25-2.81,2.92Z"/><path class="cls-5" d="m1528.01,74.45c.25-.57-.3-2.02.77-1.55,1.4.62,2.76,1.8,3.55,3.1.32.53-1.35,1.13-2.34,1.17-1.98.08-1.86-1.41-1.97-2.72Z"/><path class="cls-11" d="m1409.01,40.8c.42,1.15.3,2.2-.15,3.15-.26.56.12,1.58-1.07,1.62-.99.04-1.69-.51-2.43-.98-.44-.28-.41-.73.04-.97,1.31-.69,1.89-2.27,3.61-2.82Z"/><path class="cls-9" d="m1394.96,72.71c-1.53.43-1.8-.9-2.09-2.06-.15-.59-.33-1.42.28-1.8.69-.44,1.18.06,1.48.74.17.39.54.5.95.64.67.22,2.1-.9,1.88,1.08-.18,1.61-1.27,1.35-2.5,1.41Z"/><path class="cls-7" d="m1284.69,21.55c1.87,1.22,4.08,1.42,4,3.4-.04,1.06-2.14,1.6-3.04,1.22-1.87-.8-.57-2.68-.97-4.62Z"/><path class="cls-7" d="m1276.87,54.02c.12-.57-.37-1.82,1.01-1.51,1.32.3,2.93.96,3.12,2.3.17,1.18-1.28,1.59-2.5,1.63-1.75.05-1.66-1.14-1.62-2.42Z"/><path class="cls-5" d="m1316.82,25.38c1.1.83,3.14,1.17,3.29,2.76.17,1.76-1.99,1.32-2.89,1.34-1.47.03-1.27-1.62-1.35-2.72-.04-.55-.32-1.41.95-1.38Z"/><path class="cls-16" d="m1435.73,41.45c.22-.6-.45-1.57.71-1.75.77-.12,3.3,1.94,3.25,2.63-.14,1.63-1.73,1.54-2.6,1.63-1.83.18-1.17-1.49-1.36-2.5Z"/><path class="cls-9" d="m1384.05,25.27c-1.51.21-2.54.13-2.85-1.4-.13-.65-.49-1.33.06-1.82.6-.54,1.21-.03,1.78.28.35.19.71.43,1.09.5.86.16,2.07-.37,1.85,1.4-.21,1.68-1.43.88-1.93,1.04Z"/><path class="cls-7" d="m1129.82,50.21c.21-.51-.53-1.91.88-1.62,1.39.28,3.11.98,3.25,2.54.09,1.04-1.46,1.25-2.55,1.32-1.6.09-1.68-.94-1.58-2.24Z"/><path class="cls-7" d="m1443.53,86.63c-.72-.37-2.12.53-2.3-1.03-.18-1.59,1-1.61,2.12-1.6.16,0,.32-.04.49-.05.81-.03,1.54-1.39,2.37-.26.49.67-.09,1.42-.32,2.1-.41,1.21-1.46.75-2.37.83Z"/><path class="cls-6" d="m1336.5,74.73c-1.44.23-1.49-1.13-1.42-2.53.03-.57-.25-1.67.76-1.37,1.45.43,3.18,1.15,3.49,2.7.25,1.26-1.31,1.05-2.84,1.2Z"/><path class="cls-7" d="m1379.07,71.64c1.18.64,3.03,1.02,3.07,2.59.03,1.51-1.9,1.14-2.89,1.32-1.4.26-1.24-1.15-1.2-2.08.02-.7-.4-1.72,1.03-1.83Z"/><path class="cls-16" d="m1376.71,31.59c.96.54,1.84.74,2.15,1.27.46.79,2.01,1.12,1.43,2.27-.51,1.02-1.98.88-2.85.88-1.35.01-.82-1.48-.9-2.37-.05-.56.08-1.12.16-2.05Z"/><path class="cls-7" d="m1524.52,52.44c-1.92.41-2.06-.77-1.9-2.11.07-.61-.46-1.56.68-1.73.92-.13,3.33,2.02,3.24,2.84-.15,1.42-1.28.86-2.03.99Z"/><path class="cls-11" d="m1469,34.68c.55,1.13.28,2.11.3,3.05.02,1.08-.92,1.27-1.66,1.37-.87.11-1.59-.5-2.01-1.16-.56-.89.33-1.27.91-1.67.79-.54,1.61-1.03,2.47-1.58Z"/><path class="cls-8" d="m1205.9,83.48c.94-.98,1.87-1.97,2.83-2.93.27-.26.54-.75.99-.5.54.3.65.93.63,1.48-.06,1.67-1.8,2.75-4.03,2.54-.14-.2-.28-.39-.42-.59Z"/><path class="cls-7" d="m1159.26,74.39c-1.17.15-1.38-.57-1.35-1.63.03-1.13.55-1.64,1.65-1.57,1.09.07,2.11.48,2.42,1.58.21.77-1.34,1.65-2.72,1.62Z"/><path class="cls-7" d="m1594.38,39.75c.77-.27,1.73-1.13,2.22.08.42,1.03-.26,2.21-.83,3.03-.65.95-3.5-.03-4-1.25,1.48.22,2.61-.04,2.61-1.87Z"/><path class="cls-9" d="m1205.9,83.48c.14.2.28.39.42.59-1,2.27-2.43,0-3.68.28-.73.17-.77-1.01-.79-1.76-.02-.95.58-.94,1.27-1.05,1.6-.25,2.45.44,2.78,1.95Z"/><path class="cls-9" d="m1166.56,86.52c-1.36.25-2.09-.48-2.19-1.96-.04-.56-.18-1.14.41-1.54.71-.49.92.32,1.37.51.36.15.68.41,1.05.48.73.14,1.7-.26,1.62,1.13-.09,1.47-1.1,1.35-2.26,1.39Z"/><path class="cls-16" d="m1290.18,48.46c-.02-.62-.11-1.87.95-1.56,1.21.36,2.93,1.16,3.05,2.33.12,1.24-1.79.9-2.74,1.18-1.2.35-1.27-.85-1.26-1.95Z"/><path class="cls-11" d="m1257.59,82.06c-.5,1.3.14,2.87-.92,4.04-.32.32-.71.38-1.14.28-.92.23-1.74-.1-2.05-.89-.37-.93.7-1.23,1.24-1.47,1.1-.48,1.43-2.08,2.91-1.93,0,0-.04-.04-.04-.04Z"/><path class="cls-8" d="m1469.1,62.8c-.63-.37-1.66-.61-1.36-1.24.57-1.2,1.25-2.58,2.62-3,.8-.25.91.82.93,1.38.06,1.54-1.31,2.03-2.2,2.87Z"/><path class="cls-7" d="m1487.16,56.35c1.07.7,3.23,1.16,2.77,2.37-.56,1.47-2.57,1.23-4.11.69,0,0-.02-.01-.02-.01l.06-.02c.54-.78.19-1.69.36-2.53.31-.17.63-.34.94-.51Z"/><path class="cls-8" d="m1432.36,28.47c.15,1-.1,1.31-.76,1.15-1.09-.26-2.38-.29-2.34-1.93.02-.78.11-1.58,1.13-1.55,1.74.05,1.28,1.84,1.97,2.33Z"/><path class="cls-8" d="m1547.32,68.19c-1.78-.91-3.97-.12-3.53-2.74.09-.56.06-1.1.86-1.21.79-.11,1.18.09,1.4.89.24.84.66,1.63,1.27,3.07Z"/><path class="cls-11" d="m1494.73,55.93c.2.08.51.11.58.26.46.91-.36,1.67-.39,2.56-.03.82-.96.98-1.65,1.09-.73.11-1.14-.54-1.65-.92-.34-.25-.18-.62.08-.82.98-.73,1.98-1.43,3.03-2.18Z"/><path class="cls-11" d="m1510.2,78.67c.41,1.87-.52,2.04-1.74,1.94-.71-.06-1.53.14-1.88-.71-.17-.42,2.61-2.88,3.11-2.76,1.1.28.38,1.22.52,1.52Z"/><path class="cls-8" d="m1449.86,80.97c-1.2-.35-3,.53-3.24-1.53-.09-.74.2-1.68,1-1.71,2.13-.08,1.41,2.14,2.24,3.24Z"/><path class="cls-8" d="m1347.95,69.84c.56,1,.62,1.72,1.11,2.3.57.68.17,1.48-.48,1.83-.46.25-1.11.75-1.73.27-.6-.47-.49-1.21-.28-1.78.29-.8.78-1.53,1.37-2.62Z"/><path class="cls-11" d="m1313.14,49.29c.99.12,1.45.71,1.45,1.64,0,.91-.38,1.63-1.39,1.63-.98,0-1.43-.66-1.43-1.6,0-.92.4-1.54,1.37-1.67Z"/><path class="cls-8" d="m1547.58,81.57c.62-1.13,1.07-2.48,2.42-2.42.72.03,1.13,1.19.86,1.77-.69,1.46-2.15.28-3.28.66Z"/><path class="cls-11" d="m1373.09,89.33s.02-.04.02-.04c-.54-.05-1.11,0-1.63-.16-.94-.27-1.54-.86-1.33-1.96.17-.9.87-1.13,1.61-1.15,1.08-.04,1.31.74,1.32,1.63,0,.56,0,1.12,0,1.68Z"/><path class="cls-8" d="m1468.2,86.54c1.55,1.32,1.09,3.05,1.18,5.06-1.03-1.77-3.53-2.8-1.18-5.06Z"/><path class="cls-12" d="m1283.94,85.87c1.72.1,1.28,1.73,1.76,2.68.24.48-.14,1.06-.74.84-1-.35-2.24-.52-2.2-2.08.02-.83.13-1.45,1.18-1.44Z"/><path class="cls-11" d="m1205.05,52.93c-.25.84-.78,1.31-1.64,1.15-.89-.17-1.22-.85-1.03-1.67.17-.72.68-1.57,1.4-1.36.66.2,1.41.89,1.27,1.88Z"/><path class="cls-1" d="m1344.01,45.22c.2,1.01-.22,1.8-1.19,1.69-1.22-.13-1.09-1.42-1.28-2.29-.24-1.14.68-1.04,1.42-1.07,1.37-.06,1.05.91,1.05,1.67Z"/><path class="cls-11" d="m1583.49,20.34c-.02.47-.5,1.04-1.48.98-1.02-.06-1.3-.79-1.3-1.68,0-.92.5-1.24,1.38-1.26,1.05-.02,1.45.5,1.4,1.95Z"/><path class="cls-1" d="m1261.08,81.49c-1.16.19-2.32.38-3.49.57,0,0,.04.04.04.04-.04-1.22-.91-2.4-.16-3.65-.03.13-.09.38-.08.38,1.12.3,2.04.94,2.94,1.62.26.2.48.43.73.65,0,.13,0,.26.01.4Z"/><path class="cls-8" d="m1149.41,44.33c-.99,1.04-1.74,1.99-2.66,2.72-.36.28-.6-.36-.61-.78-.03-1.12.19-2.21,1.39-2.54.48-.13,1.12.34,1.88.6Z"/><path class="cls-1" d="m1330.87,59.73c.99.94,2.84,1.22,2.3,3.11-.18.65-.75.7-1.17.51-1.67-.74-.95-2.33-1.13-3.63Z"/><path class="cls-4" d="m1357.47,62.83c.05.48-.72.43-1.47.48-1.42.1-1.5-.9-1.64-1.89-.12-.89.35-1.07,1.14-1.11,1.4-.08,1.73.79,1.97,2.52Z"/><path class="cls-8" d="m1485.8,59.41s.02.01.02.01c-.49.52-1.05.28-1.58.14-.76-.2-1.69-.23-1.58-1.42.05-.58.09-1.14.79-1.34,1.09-.31,1.42.44,1.75,1.22.19.45.39.89.58,1.33,0,0,.02.06.02.06Z"/><path class="cls-11" d="m1110.09,28.73c.02.81,0,1.59-1.01,1.61-.99.03-1.44-.57-1.46-1.52-.02-.9.27-1.65,1.29-1.69,1.11-.04,1.27.76,1.19,1.6Z"/><path class="cls-11" d="m1188.84,21.35c-1-.09-1.38-.7-1.36-1.65.02-.88.44-1.3,1.36-1.32.9-.01,1.37.23,1.24,1.25-.11.83-.06,1.68-1.23,1.71Z"/><path class="cls-8" d="m1407.7,25.5c-.43.07-.58-.23-.68-.55-.27-.9.14-1.69.68-2.27.61-.66,1.73-.62,2.25-.13.7.68-.53.9-.76,1.41-.31.68-.73,1.28-1.48,1.54Z"/><path class="cls-4" d="m1296.63,68.77c.22,1.06-.23,1.37-1.02,1.39-.76.02-1.64-.05-1.69-.95-.05-1.01.93-1.63,1.7-1.8,1.06-.23.61,1.06,1,1.36Z"/><path class="cls-8" d="m1336.43,87.02c-1.29.14-1.11-.8-1.25-1.45-.17-.8.12-1.23,1.02-1.18.83.05,1.44.32,1.47,1.25.03.92-.58,1.24-1.24,1.38Z"/><path class="cls-11" d="m1137.83,35.16c-.07.93-.45,1.49-1.32,1.52-.84.03-1.41-.41-1.44-1.27-.03-.84.48-1.39,1.31-1.44.84-.05,1.31.47,1.46,1.19Z"/><path class="cls-12" d="m1495.4,44.94s-.05,0-.05,0c2.48.11,1.09,2.34,1.98,3.38-1.06-.38-2.52.15-2.81-1.3-.14-.73-.53-1.87.87-2.08Z"/><path class="cls-8" d="m1387.52,68.58c.19,1.01,1.53,2.03-.03,2.93-.64.37-1.28.13-1.48-.33-.59-1.33.93-1.69,1.51-2.6Z"/><path class="cls-12" d="m1224.57,80.49c-.03.71-.17,1.28-.83.89-.8-.46-2.32-.1-2.15-1.78.07-.7.22-1.49.99-1.41,1.36.14,1.65,1.37,1.99,2.3Z"/><path class="cls-9" d="m1594.38,39.75c0,1.83-1.13,2.09-2.61,1.87,0-1.02,0-2.04,0-3.11,1,.18,1.8.71,2.61,1.24Z"/><path class="cls-11" d="m1523.61,26.97c-.07.91-.56,1.35-1.45,1.31-.77-.04-1.24-.51-1.26-1.24-.02-.85.49-1.41,1.35-1.44.89-.03,1.31.53,1.36,1.38Z"/><path class="cls-1" d="m1309.79,81.25c.24.95-.5.73-1,.78-1.03.1-1.75-.16-1.84-1.37-.07-.92.34-1.39,1.21-1.47,1.55-.15,1.06,1.35,1.64,2.06Z"/><path class="cls-4" d="m1557.17,49.01c-2.46-.8-2.58-.89-1.95-1.71.41-.54.64-1.71,1.41-1.48,1.26.37.68,1.77,1.01,2.7,0,0,.03-.02.03-.02-.31.05-.68.02-.52.53h.02Z"/><path class="cls-12" d="m1171.25,49.89c-.01.7-.12,1.32-.8.93-.8-.46-2.33-.1-2.18-1.79.06-.7.25-.98,1-1.03,1.56-.11,1.55,1.16,1.97,1.9Z"/><path class="cls-1" d="m1562.51,82.77c-1.02-.37-2,1.61-2.9.08-.46-.77-.1-1.83.72-2.08,1.33-.41,1.67.88,2.19,2Z"/><path class="cls-12" d="m1234.1,66.72c1.44.06,2.12.67,2.27,1.78.07.53.13,1.34-.76,1.12-.97-.24-2.15-.39-2.17-1.85,0-.69.18-1.11.67-1.05Z"/><path class="cls-14" d="m1181.02,72.33c.92.02.83.7.94,1.19.28,1.26-.93,1.08-1.51,1.44-.54.33-.91-.14-.93-.69-.05-1.09.96-1.37,1.51-1.95Z"/><path class="cls-12" d="m1296.52,56.57c-.49-.16-1.37.06-1.37-.88,0-1.06,1.01-1.48,1.73-1.74.83-.3.68.66.71,1.14.05.7.16,1.54-1.07,1.48Z"/><path class="cls-8" d="m1598.55,64.03c.15.94-.22,1.24-1.04,1.29-1.09.08-1.37-.47-1.43-1.41-.04-.68.07-1.09.86-1.06.88.03,1.64.17,1.61,1.18Z"/><path class="cls-8" d="m1377.19,28.44c.1,1.15-.69,1.57-1.55,1.77-.56.13-.85-.36-.76-.91.15-.98.87-1.59,1.7-1.83.7-.2.58.55.61.97Z"/><path class="cls-8" d="m1115.36,51.53c-.68-.12-1.62.21-1.43-.86.15-.83.92-1.36,1.69-1.5.22-.04.77.91.89,1.47.26,1.13-.74.71-1.15.89Z"/><path class="cls-1" d="m1556.36,34.75c.05-1.36.44-2.42,1.64-2.48.81-.04.69,1.1.62,1.62-.21,1.73-1.47.41-2.27.87Z"/><path class="cls-9" d="m1584.31,53.89c-.05.96-.41,1.49-1.2,1.49-.92,0-1.25-.59-1.28-1.45-.03-1,.66-.94,1.33-.98.84-.06,1.23.3,1.15.94Z"/><path class="cls-12" d="m1524.57,73.64c-.81-.1-.57-.86-.53-1.48.04-.7.37-1.48,1.11-1.3.75.18.64,1.22.78,1.85.13.56-.46.99-1.36.93Z"/><path class="cls-6" d="m1487.16,56.35c-.31.17-.63.34-.94.51-.37-.51-.53-1.31-.06-1.53.75-.36.65.66,1,1.02Z"/><path class="cls-4" d="m1255.53,86.39c.43.1.82.04,1.14-.28.02.37.17.81-.4.92-.49.09-.72-.16-.74-.63Z"/><path class="cls-4" d="m1261.08,81.49c-.02-.13-.02-.26-.01-.4.18.12.52.28.51.35-.09.34-.3.21-.49.05Z"/><path class="cls-6" d="m1485.8,59.41s-.03-.07-.02-.06.09.04.09.05c0,0-.06.02-.06.02Z"/><path class="cls-2" d="m1557.16,49.02c-.17-.51.21-.48.52-.53.05.39-.14.55-.52.53Z"/></svg>